<svg width="906.42" height="756" xmlns="http://www.w3.org/2000/svg" data-name="Layer 1">
 <defs>
  <clipPath transform="translate(-146.79 -72)" id="07e7d08c-c6f9-475f-8fa6-c69f2c72c8fe">
   <path fill="#f9a826" d="m413.56,230.63s50.57,15.17 121.38,-7.59s217.47,32.87 217.47,32.87s116.32,0 288.28,-73.33c0,0 -78.39,75.86 -22.76,121.38s5.06,111.26 -60.69,136.55s-70.8,75.86 -65.75,123.91s0,2.53 0,2.53s-197.24,-35.4 -247.82,86l-250.34,-394.5s-15.17,-30.34 20.23,-27.82z" data-name="&lt;Clipping Path&gt;" id="c8ed4358-d450-436c-89b2-67b880a93208"/>
  </clipPath>
  <linearGradient y2="0.00002" x2="0.50004" y1="0.99993" x1="0.50004" id="af67113a-287e-4ea5-97c7-bca3f36ab9af">
   <stop stop-opacity="0.25" stop-color="gray" offset="0"/>
   <stop stop-opacity="0.12" stop-color="gray" offset="0.54"/>
   <stop stop-opacity="0.1" stop-color="gray" offset="1"/>
  </linearGradient>
 </defs>
 <title>superhero</title>
 <g>
  <title>Layer 1</title>
  <path id="svg_1" fill="url(#af67113a-287e-4ea5-97c7-bca3f36ab9af)" d="m881.97001,228.38a65.25,65.25 0 0 1 -7.44,-7.1c0,0.61 0,1.22 0,1.83c-18.17,-18.54 -17.53,-41 -10.09,-61.49l2.46,-0.91c11.68,-30.88 38.45,-56.78 38.45,-56.78l-4,1.68c1.24,-1.28 1.95,-2 1.95,-2c-166,70.81 -281.5,74.94 -294.38,75.18c-7.94,-3 -73.36,-26.82 -136.65,-35.7c-19.91,-2.89 -39.68,-4.34 -57.44,-3.22l-19.94,-85.61l-0.38,0.23c-0.93,-7.34 -4.38,-23.32 -17,-33.23c-16.85,-13.16 -4.3,47.39 -4.3,47.39l1.38,-0.65l7.06,76.24l-3.44,2.88a262.06,262.06 0 0 1 -61.32,10.57a43.15,43.15 0 0 0 9.32,-12.43a8.29,8.29 0 0 0 7.51,-2.23a10.19,10.19 0 0 0 1.65,-2.31a22,22 0 0 0 2.2,-4.73c4.14,-11.12 8.66,-22.27 10,-34.05s-0.86,-24.56 -8.79,-33.39s-22.39,-12.19 -32.1,-5.37c-2.51,1.76 -4.64,4.1 -7.4,5.44c-8.41,4.07 -17.74,-2.53 -25.57,-7.63c-9.1,-5.93 -21.12,-10.18 -30.55,-4.8a18.7,18.7 0 0 0 -7,7.18a22.84,22.84 0 0 0 -3.47,13.75c0.54,7.77 4.73,15 10.34,20.36a17.65,17.65 0 0 0 6.77,4.42a12.56,12.56 0 0 0 2,0.44a43.11,43.11 0 0 0 -6.26,32.46l-3.49,21.12c-3.1,1.45 -4.83,4.62 -5.8,7.72c-14.59,0.43 -29.52,10.43 -29.52,10.43l-57.34,57.34c-14.87,10.09 -4.78,28.67 -4.78,28.67l33.45,100.35l1.85,-1.38c6.86,12.5 27,47 30.87,29.8c4.73,-20.84 -10,-39.76 -10,-39.76l-0.18,0l-3.81,-4.9l-14,-74.6l17.71,-17.59l23.8,-3.47l1.06,154.47c-43.54,114.69 -38.23,167.25 -38.23,167.25l38.23,143.36l4.88,-0.81l1.18,4.72l0.43,-0.15l2.12,10.58l-3.82,0l-4.78,14.34s-24.42,-0.53 -23.89,4.78s13.81,14.34 47.79,4.78l9.56,-9.56s4.78,-4.78 -4.78,-14.34l-0.68,0l-2.65,-18.56l3.33,-0.56l-28.69,-143.39c23.89,-19.65 66.9,-95.57 66.9,-95.57s43,75.93 66.9,95.57l-28.67,143.35l3.33,0.56l-2.61,18.56l-0.68,0c-9.56,9.56 -4.78,14.34 -4.78,14.34l9.56,9.56c34,9.56 47.26,0.53 47.79,-4.78s-23.89,-4.78 -23.89,-4.78l-4.78,-14.34l-3.82,0l2.75,-13.76l0.49,-1.47l5.36,0.89l38.23,-143.36s-0.71,-82.83 -37.83,-186.37l76.26,106.94l60.34,95.14a129.34,129.34 0 0 1 11.73,-22l43.66,-40.79c50.75,-30.19 118.5,-32 160.34,-29.51l38.58,4.17l18.14,-95.56c10.57,-13.61 26.26,-25.35 49.07,-34.13c47.32,-18.2 87,-56.84 86.68,-94.41c0.69,0.77 1.36,1.54 2,2.32c0.49,-16.62 -6.72,-33.12 -24.44,-47.63zm-523.76,141.75l-0.05,-1.76l2.2,3.46l-2.15,-1.7z"/>
  <path id="svg_2" fill="#fdb797" d="m208.88001,350l-0.18,0l-8.49,-10.95l-13.74,13.74l1.52,2.28l-1.73,0.42s27.73,53.56 32.35,33.23s-9.73,-38.72 -9.73,-38.72z"/>
  <path fill="#f9a826" d="m266.77001,158.63s50.57,15.17 121.38,-7.59s217.47,32.87 217.47,32.87s116.32,0 288.28,-73.33c0,0 -78.39,75.86 -22.76,121.38s5.06,111.26 -60.69,136.55s-70.8,75.86 -65.75,123.91s0,2.53 0,2.53s-197.24,-35.4 -247.82,86l-250.34,-394.5s-15.17,-30.34 20.23,-27.82z" data-name="&lt;Clipping Path&gt;" id="83eae6ee-46c5-4585-a2a2-a187faac01c1"/>
  <g id="svg_3" clip-path="url(#07e7d08c-c6f9-475f-8fa6-c69f2c72c8fe)">
   <polygon id="svg_4" opacity="0.1" points="141.46 84.18 771.11 536.82 809.04 425.56 141.46 84.18"/>
   <polygon id="svg_5" opacity="0.1" points="179.39 225.79 528.35 579.81 578.93 541.88 179.39 225.79"/>
  </g>
  <g id="svg_6" opacity="0.1">
   <path id="svg_7" d="m281.38001,194.32s50.57,15.17 121.38,-7.59s217.45,32.88 217.45,32.88s94.1,0 238.14,-53.36c11.39,-30.12 37.49,-55.38 37.49,-55.38c-172,73.33 -288.28,73.33 -288.28,73.33s-146.67,-55.63 -217.47,-32.87s-121.38,7.59 -121.38,7.59c-35.4,-2.53 -20.23,27.82 -20.23,27.82l10.41,16.41c2.17,-5.53 8.22,-9.85 22.49,-8.83z"/>
   <path id="svg_8" d="m873.11001,232.25a63.64,63.64 0 0 1 -7.26,-6.93c-0.58,14.93 4.57,29.78 19.9,42.33a78.94,78.94 0 0 1 11.18,11.06c0.49,-16.22 -6.54,-32.32 -23.82,-46.46z"/>
  </g>
  <polygon id="svg_9" fill="#fdb797" points="358.58 700.77 353.92 724.08 335.27 724.08 339.94 691.45 358.58 700.77"/>
  <polygon id="svg_10" opacity="0.1" points="358.2 703.99 356.89 707.93 338.5 702.68 339.81 700.05 358.2 703.99"/>
  <polygon id="svg_11" fill="#fdb797" points="237.41 700.77 242.07 724.08 260.71 724.08 256.05 691.45 237.41 700.77"/>
  <polygon id="svg_12" opacity="0.1" points="237.34 703.99 238.65 709.24 257.05 702.68 257.05 700.05 237.34 703.99"/>
  <path id="svg_13" fill="#fdb797" d="m398.03001,66.49s-0.52,-23.36 -16.93,-36.22s-4.13,46.19 -4.13,46.19l21.06,-9.97z"/>
  <path id="svg_14" fill="#333" d="m260.71001,719.42l-23.3,0l-4.66,14s-23.82,-0.52 -23.3,4.66s13.46,14 46.6,4.66l9.32,-9.32s4.66,-4.68 -4.66,-14z"/>
  <path id="svg_15" fill="#333" d="m335.27001,719.42l23.3,0l4.66,14s23.82,-0.52 23.3,4.66s-13.46,14 -46.6,4.66l-9.32,-9.32s-4.66,-4.68 4.66,-14z"/>
  <path id="svg_16" fill="#333" d="m363.21001,402.51l-130.46,0c-42.46,111.85 -37.28,163.12 -37.28,163.12l37.28,139.81l28,-4.66l-28,-139.78c23.3,-19.16 65.25,-93.21 65.25,-93.21s41.93,74.01 65.21,93.21l-28,139.81l28,4.66l37.28,-139.81s5.21,-51.3 -37.28,-163.15z"/>
  <path id="svg_17" opacity="0.1" d="m232.75001,404.32s74,28 130.49,0l-130.49,0z"/>
  <path id="svg_18" fill="#5656ff" d="m228.63001,235.19l-37.28,37.28l14,74.57l-18.64,14l-32.62,-97.87s-9.84,-18.12 4.66,-28l55.93,-55.93s24,-16.08 40.5,-7.84s-26.87,63.2 -26.87,63.2"/>
  <path id="svg_19" fill="#5656ff" d="m228.08001,234.73l4.66,167.78s74,28 130.49,0l-4.66,-157.94l-1.19,-5.22l0.86,-2.57l56,-46.44c15.35,-8.45 7.24,-27.41 7.24,-27.41l-23.4,-100.47l-19.87,12.18l7,75.54l-39.88,33.08l-1,-0.05l0,0.25l-102.23,-4.65"/>
  <rect id="svg_20" fill="#fdb797" ry="15.83" rx="15.83" height="41.94" width="37.28" y="155.76" x="279.61"/>
  <path id="svg_21" opacity="0.1" d="m280.80001,173.67a41.93,41.93 0 0 0 36,-4a18.71,18.71 0 0 0 -17.52,-12.29l0,0a18.7,18.7 0 0 0 -18.48,16.29z"/>
  <circle id="svg_22" fill="#fdb797" r="41.94" cy="132.46" cx="293.59"/>
  <path id="svg_23" opacity="0.1" d="m264.46001,109.33a21.6,21.6 0 0 1 -7.8,-0.44a17.22,17.22 0 0 1 -6.6,-4.32c-5.48,-5.26 -9.56,-12.28 -10.09,-19.86s3,-15.61 9.57,-19.37c9.2,-5.24 20.93,-1.1 29.8,4.68c7.63,5 16.74,11.41 24.94,7.44c2.69,-1.3 4.77,-3.59 7.22,-5.3c9.47,-6.65 23.57,-3.37 31.3,5.24s9.9,21.07 8.57,32.57s-5.73,22.37 -9.77,33.21a16.11,16.11 0 0 1 -3.13,5.83c-4.92,5.05 -14.13,1.13 -17.37,-5.13c-5.63,-10.89 0,-29.77 -13.3,-36.12c-10.59,-5.04 -31.97,0.83 -43.34,1.57z"/>
  <path id="svg_24" fill="#333" d="m265.09001,108.29a21.6,21.6 0 0 1 -7.8,-0.44a17.22,17.22 0 0 1 -6.6,-4.32c-5.48,-5.26 -9.56,-12.28 -10.09,-19.86s3,-15.61 9.57,-19.37c9.2,-5.24 20.93,-1.1 29.8,4.68c7.63,5 16.74,11.41 24.94,7.44c2.69,-1.3 4.77,-3.59 7.22,-5.3c9.47,-6.65 23.57,-3.37 31.3,5.24s9.9,21.07 8.57,32.57s-5.79,22.37 -9.79,33.21a16.11,16.11 0 0 1 -3.13,5.83c-4.92,5.05 -14.13,1.13 -17.37,-5.13c-5.63,-10.89 0,-29.77 -13.3,-36.12c-10.54,-5.04 -31.96,0.84 -43.32,1.57z"/>
  <ellipse id="svg_25" fill="#fdb797" ry="9.32" rx="4.66" cy="132.46" cx="316.89"/>
  <polygon id="svg_26" opacity="0.1" points="228.14 234.71 239.97 240.25 228.14 254.71 228.14 234.71"/>
  <polygon id="svg_27" opacity="0.1" points="358.2 236.75 350.32 245.51 355.57 253.39 358.64 244.63 358.2 236.75"/>
  <path id="svg_28" fill="#f9a826" d="m298.80001,194l0,7.59s-55.35,-10.11 -56.76,-25.29l36.53,2.53l20.23,15.17z"/>
  <path id="svg_29" fill="#f9a826" d="m298.80001,194l0,7.59s55.35,-10.11 56.76,-25.29l-36.53,2.53l-20.23,15.17z"/>
  <polygon id="svg_30" opacity="0.1" points="637.09 276.36 819.16 319.35 753.41 347.17 637.09 276.36"/>
  <path id="svg_31" fill="#f9a826" d="m242.21001,176.67s0,-15.89 10.6,-15.89s21.19,31.79 21.19,31.79l-31.79,-15.9z"/>
  <circle id="svg_32" opacity="0.5" fill="#f55f44" r="6.94" cy="293.66" cx="11.56"/>
  <circle id="svg_33" opacity="0.5" fill="#f55f44" r="6.94" cy="456.68" cx="98.27"/>
  <circle id="svg_34" opacity="0.5" fill="#f55f44" r="6.94" cy="19.65" cx="837.05"/>
  <path id="svg_35" opacity="0.5" fill="#4d8af0" d="m502.80001,24.23a4.25,4.25 0 0 1 -2.37,-5.13a2,2 0 0 0 0.09,-0.47l0,0a2.13,2.13 0 0 0 -3.83,-1.41l0,0a2,2 0 0 0 -0.24,0.42a4.25,4.25 0 0 1 -5.12,2.36a2,2 0 0 0 -0.47,-0.09l0,0a2.13,2.13 0 0 0 -1.41,3.83l0,0a2,2 0 0 0 0.42,0.24a4.25,4.25 0 0 1 2.34,5.12a2,2 0 0 0 -0.09,0.47l0,0a2.13,2.13 0 0 0 3.83,1.41l0,0a2,2 0 0 0 0.24,-0.42a4.25,4.25 0 0 1 5.13,-2.37a2,2 0 0 0 0.47,0.09l0,0a2.13,2.13 0 0 0 1.42,-3.82l0,0a2,2 0 0 0 -0.41,-0.23z"/>
  <path id="svg_36" opacity="0.5" fill="#4d8af0" d="m843.86001,446.22a4.25,4.25 0 0 1 -2.37,-5.13a2,2 0 0 0 0.09,-0.47l0,0a2.13,2.13 0 0 0 -3.83,-1.41l0,0a2,2 0 0 0 -0.24,0.42a4.25,4.25 0 0 1 -5.13,2.37a2,2 0 0 0 -0.47,-0.09l0,0a2.13,2.13 0 0 0 -1.41,3.83l0,0a2,2 0 0 0 0.42,0.24a4.25,4.25 0 0 1 2.37,5.13a2,2 0 0 0 -0.09,0.47l0,0a2.13,2.13 0 0 0 3.83,1.41l0,0a2,2 0 0 0 0.24,-0.42a4.25,4.25 0 0 1 5.13,-2.37a2,2 0 0 0 0.47,0.09l0,0a2.13,2.13 0 0 0 1.41,-3.83l0,0a2,2 0 0 0 -0.42,-0.24z"/>
  <circle id="svg_37" opacity="0.5" fill="#47e6b1" r="6.94" cy="643.97" cx="587.32"/>
  <circle id="svg_38" opacity="0.5" fill="#47e6b1" r="6.94" cy="595.42" cx="11.56"/>
  <circle id="svg_39" opacity="0.5" fill="#47e6b1" r="6.94" cy="92.49" cx="566.51"/>
  <g id="svg_40" opacity="0.5">
   <rect id="svg_41" fill="#47e6b1" height="19.65" width="3.47" x="8.09"/>
   <rect id="svg_42" transform="rotate(90 91.65 -146.79)" fill="#47e6b1" height="19.65" width="3.47" y="-74.78999" x="246.53"/>
  </g>
  <g id="svg_43" opacity="0.5">
   <rect id="svg_44" fill="#47e6b1" height="19.65" width="3.47" y="188.45" x="71.68"/>
   <rect id="svg_45" transform="rotate(90 343.69 -21.93)" fill="#47e6b1" height="19.65" width="3.47" y="238.52" x="562.16"/>
  </g>
  <g id="svg_46" opacity="0.5">
   <rect id="svg_47" fill="#47e6b1" height="19.65" width="3.47" y="104.05" x="707.56"/>
   <rect id="svg_48" transform="rotate(90 895.18 -742.21)" fill="#47e6b1" height="19.65" width="3.47" y="-566.16002" x="1749.52999"/>
  </g>
 </g>
</svg>